{
	"asset":{
		"generator":"Khronos glTF Blender I/O v4.5.48",
		"version":"2.0"
	},
	"scene":0,
	"scenes":[
		{
			"name":"Scene",
			"nodes":[
				0
			]
		}
	],
	"nodes":[
		{
			"mesh":0,
			"name":"model",
			"rotation":[
				0,
				-0.7071068286895752,
				0.7071068286895752,
				4.3711395392165286e-08
			],
			"scale":[
				0.5,
				0.4999999701976776,
				0.4999999701976776
			],
			"translation":[
				0,
				-0.11999998986721039,
				-0.07999999821186066
			]
		}
	],
	"materials":[
		{
			"doubleSided":true,
			"name":"CustomMaterial",
			"normalTexture":{
				"index":0
			},
			"pbrMetallicRoughness":{
				"baseColorTexture":{
					"index":1
				},
				"metallicRoughnessTexture":{
					"index":2
				}
			}
		}
	],
	"meshes":[
		{
			"name":"model",
			"primitives":[
				{
					"attributes":{
						"POSITION":0,
						"NORMAL":1,
						"TEXCOORD_0":2
					},
					"indices":3,
					"material":0
				}
			]
		}
	],
	"textures":[
		{
			"sampler":0,
			"source":0
		},
		{
			"sampler":0,
			"source":1
		},
		{
			"sampler":0,
			"source":2
		}
	],
	"images":[
		{
			"mimeType":"image/png",
			"name":"texture_normal",
			"uri":"texture_normal.png"
		},
		{
			"mimeType":"image/png",
			"name":"texture_diffuse",
			"uri":"texture_diffuse.png"
		},
		{
			"mimeType":"image/png",
			"name":"texture_metallic-texture_roughness",
			"uri":"texture_metallic-texture_roughness.png"
		}
	],
	"accessors":[
		{
			"bufferView":0,
			"componentType":5126,
			"count":3473,
			"max":[
				0.08996500074863434,
				0.9495639801025391,
				0
			],
			"min":[
				-0.09748200327157974,
				-0.9498649835586548,
				-0.9028699994087219
			],
			"type":"VEC3"
		},
		{
			"bufferView":1,
			"componentType":5126,
			"count":3473,
			"type":"VEC3"
		},
		{
			"bufferView":2,
			"componentType":5126,
			"count":3473,
			"type":"VEC2"
		},
		{
			"bufferView":3,
			"componentType":5123,
			"count":5997,
			"type":"SCALAR"
		}
	],
	"bufferViews":[
		{
			"buffer":0,
			"byteLength":41676,
			"byteOffset":0,
			"target":34962
		},
		{
			"buffer":0,
			"byteLength":41676,
			"byteOffset":41676,
			"target":34962
		},
		{
			"buffer":0,
			"byteLength":27784,
			"byteOffset":83352,
			"target":34962
		},
		{
			"buffer":0,
			"byteLength":11994,
			"byteOffset":111136,
			"target":34963
		}
	],
	"samplers":[
		{
			"magFilter":9729,
			"minFilter":9987
		}
	],
	"buffers":[
		{
			"byteLength":123132,
			"uri":"assault_rifle.bin"
		}
	]
}
