{
	"asset":{
		"generator":"Khronos glTF Blender I/O v4.5.48",
		"version":"2.0"
	},
	"scene":0,
	"scenes":[
		{
			"name":"Scene",
			"nodes":[
				0
			]
		}
	],
	"nodes":[
		{
			"mesh":0,
			"name":"model",
			"rotation":[
				0,
				0.7071068286895752,
				-0.7071068286895752,
				0
			],
			"translation":[
				0,
				-0.17999999225139618,
				-0.4399999976158142
			]
		}
	],
	"materials":[
		{
			"doubleSided":true,
			"name":"CustomMaterial",
			"normalTexture":{
				"index":0
			},
			"pbrMetallicRoughness":{
				"baseColorTexture":{
					"index":1
				},
				"metallicRoughnessTexture":{
					"index":2
				}
			}
		}
	],
	"meshes":[
		{
			"name":"model",
			"primitives":[
				{
					"attributes":{
						"POSITION":0,
						"NORMAL":1,
						"TEXCOORD_0":2
					},
					"indices":3,
					"material":0
				}
			]
		}
	],
	"textures":[
		{
			"sampler":0,
			"source":0
		},
		{
			"sampler":0,
			"source":1
		},
		{
			"sampler":0,
			"source":2
		}
	],
	"images":[
		{
			"mimeType":"image/png",
			"name":"texture_normal",
			"uri":"texture_normal.png"
		},
		{
			"mimeType":"image/png",
			"name":"texture_diffuse",
			"uri":"texture_diffuse.png"
		},
		{
			"mimeType":"image/png",
			"name":"texture_metallic-texture_roughness",
			"uri":"texture_metallic-texture_roughness.png"
		}
	],
	"accessors":[
		{
			"bufferView":0,
			"componentType":5126,
			"count":3476,
			"max":[
				0.12800200283527374,
				0.9500859975814819,
				0
			],
			"min":[
				-0.12572099268436432,
				-0.94930100440979,
				-0.804830014705658
			],
			"type":"VEC3"
		},
		{
			"bufferView":1,
			"componentType":5126,
			"count":3476,
			"type":"VEC3"
		},
		{
			"bufferView":2,
			"componentType":5126,
			"count":3476,
			"type":"VEC2"
		},
		{
			"bufferView":3,
			"componentType":5123,
			"count":6000,
			"type":"SCALAR"
		}
	],
	"bufferViews":[
		{
			"buffer":0,
			"byteLength":41712,
			"byteOffset":0,
			"target":34962
		},
		{
			"buffer":0,
			"byteLength":41712,
			"byteOffset":41712,
			"target":34962
		},
		{
			"buffer":0,
			"byteLength":27808,
			"byteOffset":83424,
			"target":34962
		},
		{
			"buffer":0,
			"byteLength":12000,
			"byteOffset":111232,
			"target":34963
		}
	],
	"samplers":[
		{
			"magFilter":9729,
			"minFilter":9987
		}
	],
	"buffers":[
		{
			"byteLength":123232,
			"uri":"pulse_rifle.bin"
		}
	]
}
