{
	"asset":{
		"generator":"Khronos glTF Blender I/O v4.5.48",
		"version":"2.0"
	},
	"scene":0,
	"scenes":[
		{
			"name":"Scene",
			"nodes":[
				0
			]
		}
	],
	"nodes":[
		{
			"mesh":0,
			"name":"model",
			"rotation":[
				0,
				0.7071068286895752,
				-0.7071068286895752,
				0
			],
			"translation":[
				0,
				-0.3199999928474426,
				-0.3400000035762787
			]
		}
	],
	"materials":[
		{
			"doubleSided":true,
			"name":"CustomMaterial",
			"normalTexture":{
				"index":0
			},
			"pbrMetallicRoughness":{
				"baseColorTexture":{
					"index":1
				},
				"metallicRoughnessTexture":{
					"index":2
				}
			}
		}
	],
	"meshes":[
		{
			"name":"model",
			"primitives":[
				{
					"attributes":{
						"POSITION":0,
						"NORMAL":1,
						"TEXCOORD_0":2
					},
					"indices":3,
					"material":0
				}
			]
		}
	],
	"textures":[
		{
			"sampler":0,
			"source":0
		},
		{
			"sampler":0,
			"source":1
		},
		{
			"sampler":0,
			"source":2
		}
	],
	"images":[
		{
			"mimeType":"image/png",
			"name":"texture_normal",
			"uri":"texture_normal.png"
		},
		{
			"mimeType":"image/png",
			"name":"texture_diffuse",
			"uri":"texture_diffuse.png"
		},
		{
			"mimeType":"image/png",
			"name":"texture_metallic-texture_roughness",
			"uri":"texture_metallic-texture_roughness.png"
		}
	],
	"accessors":[
		{
			"bufferView":0,
			"componentType":5126,
			"count":3385,
			"max":[
				0.13504000008106232,
				0.9508180022239685,
				0
			],
			"min":[
				-0.13547299802303314,
				-0.9499480128288269,
				-1.1501840353012085
			],
			"type":"VEC3"
		},
		{
			"bufferView":1,
			"componentType":5126,
			"count":3385,
			"type":"VEC3"
		},
		{
			"bufferView":2,
			"componentType":5126,
			"count":3385,
			"type":"VEC2"
		},
		{
			"bufferView":3,
			"componentType":5123,
			"count":5997,
			"type":"SCALAR"
		}
	],
	"bufferViews":[
		{
			"buffer":0,
			"byteLength":40620,
			"byteOffset":0,
			"target":34962
		},
		{
			"buffer":0,
			"byteLength":40620,
			"byteOffset":40620,
			"target":34962
		},
		{
			"buffer":0,
			"byteLength":27080,
			"byteOffset":81240,
			"target":34962
		},
		{
			"buffer":0,
			"byteLength":11994,
			"byteOffset":108320,
			"target":34963
		}
	],
	"samplers":[
		{
			"magFilter":9729,
			"minFilter":9987
		}
	],
	"buffers":[
		{
			"byteLength":120316,
			"uri":"heavy_pistol.bin"
		}
	]
}
