{
	"asset":{
		"generator":"Khronos glTF Blender I/O v4.5.48",
		"version":"2.0"
	},
	"scene":0,
	"scenes":[
		{
			"name":"Scene",
			"nodes":[
				0
			]
		}
	],
	"nodes":[
		{
			"mesh":0,
			"name":"model",
			"rotation":[
				0,
				0.7071068286895752,
				-0.7071068286895752,
				0
			],
			"translation":[
				0,
				-0.23999997973442078,
				-0.3999999761581421
			]
		}
	],
	"materials":[
		{
			"doubleSided":true,
			"name":"CustomMaterial",
			"normalTexture":{
				"index":0
			},
			"pbrMetallicRoughness":{
				"baseColorTexture":{
					"index":1
				},
				"metallicRoughnessTexture":{
					"index":2
				}
			}
		}
	],
	"meshes":[
		{
			"name":"model",
			"primitives":[
				{
					"attributes":{
						"POSITION":0,
						"NORMAL":1,
						"TEXCOORD_0":2
					},
					"indices":3,
					"material":0
				}
			]
		}
	],
	"textures":[
		{
			"sampler":0,
			"source":0
		},
		{
			"sampler":0,
			"source":1
		},
		{
			"sampler":0,
			"source":2
		}
	],
	"images":[
		{
			"mimeType":"image/png",
			"name":"texture_normal",
			"uri":"texture_normal.png"
		},
		{
			"mimeType":"image/png",
			"name":"texture_diffuse",
			"uri":"texture_diffuse.png"
		},
		{
			"mimeType":"image/png",
			"name":"texture_metallic-texture_roughness",
			"uri":"texture_metallic-texture_roughness.png"
		}
	],
	"accessors":[
		{
			"bufferView":0,
			"componentType":5126,
			"count":3440,
			"max":[
				0.18365199863910675,
				0.9519249796867371,
				0
			],
			"min":[
				-0.18391700088977814,
				-0.9511380195617676,
				-0.5898600220680237
			],
			"type":"VEC3"
		},
		{
			"bufferView":1,
			"componentType":5126,
			"count":3440,
			"type":"VEC3"
		},
		{
			"bufferView":2,
			"componentType":5126,
			"count":3440,
			"type":"VEC2"
		},
		{
			"bufferView":3,
			"componentType":5123,
			"count":5994,
			"type":"SCALAR"
		}
	],
	"bufferViews":[
		{
			"buffer":0,
			"byteLength":41280,
			"byteOffset":0,
			"target":34962
		},
		{
			"buffer":0,
			"byteLength":41280,
			"byteOffset":41280,
			"target":34962
		},
		{
			"buffer":0,
			"byteLength":27520,
			"byteOffset":82560,
			"target":34962
		},
		{
			"buffer":0,
			"byteLength":11988,
			"byteOffset":110080,
			"target":34963
		}
	],
	"samplers":[
		{
			"magFilter":9729,
			"minFilter":9987
		}
	],
	"buffers":[
		{
			"byteLength":122068,
			"uri":"shotgun.bin"
		}
	]
}
